# xmcd
#
# Track frame offsets: 
#        150
#        12120
#        21793
#        41369
#        54877
#        69598
#        81715
#        94886
#        109044
#        124804
#        137523
#        150455
#        158809
#        177615
#        189798
#        202819
#        215815
#
# Disc length: 3063 seconds
#
# Revision: 6
# Processed by: cddbd v1.5.2PL0 Copyright (c) Steve Scherf et al.
# Submitted via: ExactAudioCopyFreeDBPlugin 1.0
#
DISCID=df0bf511
DTITLE=Otis Redding - Otis Blue - Otis Redding Sings Soul (Collector's
DTITLE=Edition)
DYEAR=2008
DGENRE=Soul
TTITLE0=Ole Man Trouble (stereo)
TTITLE1=Respect (stereo)
TTITLE2=Change Gonna Come (stereo)
TTITLE3=Down in the Valley (stereo)
TTITLE4=I've Been Loving You Too Long (stereo)
TTITLE5=Shake (stereo)
TTITLE6=My Girl (stereo)
TTITLE7=Wonderful World (stereo)
TTITLE8=Rock Me Baby (stereo)
TTITLE9=Satisfaction (stereo)
TTITLE10=You Don't Miss Your Water (stereo)
TTITLE11=Respect (1967 version)
TTITLE12=I've Been Loving You Too Long (live in Europe, March 1967)
TTITLE13=My Girl (live in Europe, March 1967)
TTITLE14=Shake (live in Europe, March 1967)
TTITLE15=Satisfaction (live in Europe, March 1967)
TTITLE16=Respect (live in Europe, March 1967)
EXTD=© 2008\nLabel: Rhino Entertainment Company - Atco\n8122 79938 9\n
EXTD=Tracks 1 - 11):   The Original Stereo Album\nTrack 12):          
EXTD=Alternate Version\nTracks 13 - 17): Live In Europe (3/67)
EXTT0=
EXTT1=
EXTT2=
EXTT3=
EXTT4=
EXTT5=
EXTT6=
EXTT7=
EXTT8=
EXTT9=
EXTT10=
EXTT11=
EXTT12=
EXTT13=
EXTT14=
EXTT15=
EXTT16=
PLAYORDER=
